<svg xmlns="http://www.w3.org/2000/svg" viewBox="0 0 180 180" width="180" height="180">
  <rect width="180" height="180" rx="40" fill="#d6477e"/>
  <g transform="translate(90,90)">
    <g opacity="0.22">
      <ellipse rx="12" ry="30" cx="0" cy="-19" fill="#fff" transform="rotate(0)"/>
      <ellipse rx="12" ry="30" cx="0" cy="-19" fill="#fff" transform="rotate(45)"/>
      <ellipse rx="12" ry="30" cx="0" cy="-19" fill="#fff" transform="rotate(90)"/>
      <ellipse rx="12" ry="30" cx="0" cy="-19" fill="#fff" transform="rotate(135)"/>
      <ellipse rx="12" ry="30" cx="0" cy="-19" fill="#fff" transform="rotate(180)"/>
      <ellipse rx="12" ry="30" cx="0" cy="-19" fill="#fff" transform="rotate(225)"/>
      <ellipse rx="12" ry="30" cx="0" cy="-19" fill="#fff" transform="rotate(270)"/>
      <ellipse rx="12" ry="30" cx="0" cy="-19" fill="#fff" transform="rotate(315)"/>
    </g>
    <g opacity="0.55">
      <ellipse rx="8" ry="20" cx="0" cy="-12" fill="#fff" transform="rotate(22.5)"/>
      <ellipse rx="8" ry="20" cx="0" cy="-12" fill="#fff" transform="rotate(67.5)"/>
      <ellipse rx="8" ry="20" cx="0" cy="-12" fill="#fff" transform="rotate(112.5)"/>
      <ellipse rx="8" ry="20" cx="0" cy="-12" fill="#fff" transform="rotate(157.5)"/>
      <ellipse rx="8" ry="20" cx="0" cy="-12" fill="#fff" transform="rotate(202.5)"/>
      <ellipse rx="8" ry="20" cx="0" cy="-12" fill="#fff" transform="rotate(247.5)"/>
      <ellipse rx="8" ry="20" cx="0" cy="-12" fill="#fff" transform="rotate(292.5)"/>
      <ellipse rx="8" ry="20" cx="0" cy="-12" fill="#fff" transform="rotate(337.5)"/>
    </g>
    <circle r="18" fill="#fff"/>
    <circle r="10" fill="#d6477e"/>
    <circle r="5" fill="#fff"/>
  </g>
</svg>
